<?xml version="1.0" encoding="utf-8"?>
<!-- Generator: Adobe Illustrator 24.3.0, SVG Export Plug-In . SVG Version: 6.00 Build 0)  -->
<svg version="1.1" xmlns="http://www.w3.org/2000/svg" xmlns:xlink="http://www.w3.org/1999/xlink" x="0px" y="0px"
	 viewBox="0 0 595.28 841.89" style="enable-background:new 0 0 595.28 841.89;" xml:space="preserve">
<style type="text/css">
	.st0{fill:#8DC63F;}
	.st1{fill:#BCBEC0;}
	.st2{fill:none;stroke:#000000;stroke-width:4;stroke-miterlimit:10;}
	.st3{fill:none;stroke:#000000;stroke-width:3;stroke-miterlimit:10;}
	.st4{font-family:'MyriadPro-Regular';}
	.st5{font-size:72px;}
</style>
<g id="Background">
	<g id="XMLID_1_">
		<g>
			<path class="st0" d="M468,369v54h-27v-18h-9v18h-18v-18h-9v18h-18v-18h-9v18h-18v-18h-9v18h-18v-18h-9v18h-18v-18h-9v18h-18v-18
				h-9v18h-18v-18h-9v18h-18v-18h-9v18h-18v-18h-9v18h-18v-18h-9v18h-18v-18h-9v18h-27v-54c9.94,0,18-8.06,18-18s-8.06-18-18-18v-18
				h18v-9h-18v-18h18v-9h-18v-18h18v-9h-18v-18h18v-9h-18v-18h18v-9h-18v-18h18v-9h-18v-18c9.94,0,18-8.06,18-18s-8.06-18-18-18V63
				h23.94v18h9V63h18v18h9V63h18v18h9V63h18v18h9V63h18v18h9V63h18v18h9V63h18v18h9V63h18v18h9V63h18v18h9V63h18v18h9V63h18v18h9V63
				h18v18h9V63H468v54c-9.94,0-18,8.06-18,18s8.06,18,18,18v18h-18v9h18v18h-18v9h18v18h-18v9h18v18h-18v9h18v18h-18v9h18v18h-18v9
				h18v18c-9.94,0-18,8.06-18,18S458.06,369,468,369z M432,361.14V124.86C432,110.58,420.42,99,406.14,99H169.86
				C155.58,99,144,110.58,144,124.86v236.28c0,14.28,11.58,25.86,25.86,25.86h236.28C420.42,387,432,375.42,432,361.14z"/>
			<path class="st1" d="M432,124.86v236.28c0,14.28-11.58,25.86-25.86,25.86H169.86c-14.28,0-25.86-11.58-25.86-25.86V124.86
				C144,110.58,155.58,99,169.86,99h236.28C420.42,99,432,110.58,432,124.86z M423,357.29V128.71c0-11.44-9.27-20.71-20.71-20.71
				H173.71c-11.44,0-20.71,9.27-20.71,20.71v228.58c0,11.44,9.27,20.71,20.71,20.71h228.58C413.73,378,423,368.73,423,357.29z"/>
			<path class="st1" d="M423,128.71v228.58c0,11.44-9.27,20.71-20.71,20.71H173.71c-11.44,0-20.71-9.27-20.71-20.71V128.71
				c0-11.44,9.27-20.71,20.71-20.71h228.58C413.73,108,423,117.27,423,128.71z"/>
		</g>
		<g>
			<path class="st2" d="M108,333c9.94,0,18,8.06,18,18s-8.06,18-18,18"/>
			<line class="st2" x1="468" y1="315" x2="468" y2="333"/>
			<line class="st2" x1="468" y1="288" x2="468" y2="306"/>
			<line class="st2" x1="468" y1="261" x2="468" y2="279"/>
			<line class="st2" x1="468" y1="234" x2="468" y2="252"/>
			<line class="st2" x1="468" y1="207" x2="468" y2="225"/>
			<line class="st2" x1="468" y1="180" x2="468" y2="198"/>
			<line class="st2" x1="468" y1="153" x2="468" y2="171"/>
			<polyline class="st2" points="437.94,63 468,63 468,117 			"/>
			<line class="st2" x1="410.94" y1="63" x2="428.94" y2="63"/>
			<line class="st2" x1="383.94" y1="63" x2="401.94" y2="63"/>
			<line class="st2" x1="356.94" y1="63" x2="374.94" y2="63"/>
			<line class="st2" x1="329.94" y1="63" x2="347.94" y2="63"/>
			<line class="st2" x1="302.94" y1="63" x2="320.94" y2="63"/>
			<line class="st2" x1="275.94" y1="63" x2="293.94" y2="63"/>
			<line class="st2" x1="248.94" y1="63" x2="266.94" y2="63"/>
			<line class="st2" x1="221.94" y1="63" x2="239.94" y2="63"/>
			<line class="st2" x1="194.94" y1="63" x2="212.94" y2="63"/>
			<line class="st2" x1="167.94" y1="63" x2="185.94" y2="63"/>
			<line class="st2" x1="140.94" y1="63" x2="158.94" y2="63"/>
			<polyline class="st2" points="108,117 108,63 131.94,63 			"/>
			<line class="st2" x1="108" y1="171" x2="108" y2="153"/>
			<line class="st2" x1="108" y1="198" x2="108" y2="180"/>
			<line class="st2" x1="108" y1="225" x2="108" y2="207"/>
			<line class="st2" x1="108" y1="252" x2="108" y2="234"/>
			<line class="st2" x1="108" y1="279" x2="108" y2="261"/>
			<line class="st2" x1="108" y1="306" x2="108" y2="288"/>
			<line class="st2" x1="108" y1="333" x2="108" y2="315"/>
			<polyline class="st2" points="135,423 108,423 108,369 			"/>
			<line class="st2" x1="162" y1="423" x2="144" y2="423"/>
			<line class="st2" x1="189" y1="423" x2="171" y2="423"/>
			<line class="st2" x1="216" y1="423" x2="198" y2="423"/>
			<line class="st2" x1="243" y1="423" x2="225" y2="423"/>
			<line class="st2" x1="270" y1="423" x2="252" y2="423"/>
			<line class="st2" x1="297" y1="423" x2="279" y2="423"/>
			<line class="st2" x1="324" y1="423" x2="306" y2="423"/>
			<line class="st2" x1="351" y1="423" x2="333" y2="423"/>
			<line class="st2" x1="378" y1="423" x2="360" y2="423"/>
			<line class="st2" x1="405" y1="423" x2="387" y2="423"/>
			<line class="st2" x1="432" y1="423" x2="414" y2="423"/>
			<polyline class="st2" points="468,369 468,423 441,423 			"/>
			<path class="st2" d="M108,117c9.94,0,18,8.06,18,18s-8.06,18-18,18"/>
			<path class="st2" d="M468,153c-9.94,0-18-8.06-18-18s8.06-18,18-18"/>
			<path class="st2" d="M468,369c-9.94,0-18-8.06-18-18s8.06-18,18-18"/>
			<polyline class="st2" points="167.94,63 167.94,81 158.94,81 158.94,63 			"/>
			<polyline class="st2" points="131.94,63 131.94,81 140.94,81 140.94,63 			"/>
			<polyline class="st2" points="185.94,63 185.94,81 194.94,81 194.94,63 			"/>
			<polyline class="st2" points="212.94,63 212.94,81 221.94,81 221.94,63 			"/>
			<polyline class="st2" points="239.94,63 239.94,81 248.94,81 248.94,63 			"/>
			<polyline class="st2" points="266.94,63 266.94,81 275.94,81 275.94,63 			"/>
			<polyline class="st2" points="293.94,63 293.94,81 302.94,81 302.94,63 			"/>
			<polyline class="st2" points="329.94,63 329.94,81 320.94,81 320.94,63 			"/>
			<polyline class="st2" points="347.94,63 347.94,81 356.94,81 356.94,63 			"/>
			<polyline class="st2" points="374.94,63 374.94,81 383.94,81 383.94,63 			"/>
			<polyline class="st2" points="401.94,63 401.94,81 410.94,81 410.94,63 			"/>
			<polyline class="st2" points="428.94,63 428.94,81 437.94,81 437.94,63 			"/>
			<polyline class="st2" points="162,423 162,405 171,405 171,423 			"/>
			<polyline class="st2" points="144,423 144,405 135,405 135,423 			"/>
			<polyline class="st2" points="198,423 198,405 189,405 189,423 			"/>
			<polyline class="st2" points="225,423 225,405 216,405 216,423 			"/>
			<polyline class="st2" points="252,423 252,405 243,405 243,423 			"/>
			<polyline class="st2" points="279,423 279,405 270,405 270,423 			"/>
			<polyline class="st2" points="306,423 306,405 297,405 297,423 			"/>
			<polyline class="st2" points="324,423 324,405 333,405 333,423 			"/>
			<polyline class="st2" points="360,423 360,405 351,405 351,423 			"/>
			<polyline class="st2" points="387,423 387,405 378,405 378,423 			"/>
			<polyline class="st2" points="414,423 414,405 405,405 405,423 			"/>
			<polyline class="st2" points="441,423 441,405 432,405 432,423 			"/>
			<path class="st2" d="M406.14,387H169.86c-14.28,0-25.86-11.58-25.86-25.86V124.86C144,110.58,155.58,99,169.86,99h236.28
				c14.28,0,25.86,11.58,25.86,25.86v236.28C432,375.42,420.42,387,406.14,387z"/>
			<polyline class="st3" points="108,198 126,198 126,207 108,207 			"/>
			<polyline class="st3" points="108,171 126,171 126,180 108,180 			"/>
			<polyline class="st3" points="108,225 126,225 126,234 108,234 			"/>
			<polyline class="st3" points="108,252 126,252 126,261 108,261 			"/>
			<polyline class="st3" points="108,306 126,306 126,315 108,315 			"/>
			<polyline class="st3" points="108,279 126,279 126,288 108,288 			"/>
			<path class="st2" d="M402.29,378H173.71c-11.44,0-20.71-9.27-20.71-20.71V128.71c0-11.44,9.27-20.71,20.71-20.71h228.58
				c11.44,0,20.71,9.27,20.71,20.71v228.58C423,368.73,413.73,378,402.29,378z"/>
			<polyline class="st3" points="468,171 450,171 450,180 468,180 			"/>
			<polyline class="st3" points="468,198 450,198 450,207 468,207 			"/>
			<polyline class="st3" points="468,225 450,225 450,234 468,234 			"/>
			<polyline class="st3" points="468,252 450,252 450,261 468,261 			"/>
			<polyline class="st3" points="468,279 450,279 450,288 468,288 			"/>
			<polyline class="st3" points="468,306 450,306 450,315 468,315 			"/>
		</g>
	</g>
</g>
<g id="Layer_2">
</g>
<g id="patitas">
	<text transform="matrix(1 0 0 1 225 270)" class="st4 st5">CPU</text>
</g>
</svg>
